<!DOCTYPE svg PUBLIC "-//W3C//DTD SVG 1.1//EN" "http://www.w3.org/Graphics/SVG/1.1/DTD/svg11.dtd"><svg xmlns="http://www.w3.org/2000/svg" xmlns:xlink="http://www.w3.org/1999/xlink" viewBox="0 0 182 27" preserveAspectRatio="xMidYMid meet"><path fill="#fff" d="M171.615 1.305l3.355 8.38c.113.224.13.374.13.468 0 .13-.055.28-.15.413-.28.468-.748.918-1.18 1.143-.43.26-.88.43-1.237.48l.6 2.42c.712-.098 1.762-.4 2.756-1.26 1.03-.92 1.91-2.38 3.22-6.02l2.13-6.035h-3.056l-1.12 4.5c-.134.525-.284 1.22-.415 1.706h-.056c-.11-.486-.3-1.16-.45-1.706l-1.368-4.5h-3.17zm-6.968 3.973c0-.168.02-.356.057-.506.187-.843.9-1.443 1.705-1.443 1.27 0 1.93 1.1 1.93 2.56 0 1.554-.73 2.585-1.97 2.585-.83 0-1.48-.58-1.67-1.35-.04-.17-.06-.376-.06-.6v-1.25zm-2.85 8.905h2.85V9.627h.038c.412.6 1.274 1.05 2.38 1.05 2.044 0 4.162-1.574 4.162-4.91 0-2.926-1.8-4.668-3.805-4.668-1.33 0-2.38.5-3.056 1.48h-.037l-.14-1.28h-2.476c.04.84.075 1.87.075 3.07v9.803zm-3.478-3.506c1.01 0 1.68-.73 1.68-1.725 0-1.03-.678-1.743-1.67-1.743-.995 0-1.688.73-1.688 1.74 0 .99.693 1.72 1.67 1.72"/><path fill="#fc0" d="M136.158 21.323h4.026l.236-5.712c.06-1.21.09-3.25.148-5.06h.12c.324 1.36.798 3.41 1.183 4.8l1.72 5.74h3.29l1.926-5.89c.74-2.34.828-2.81 1.39-4.732h.09c.03 1.718.118 3.82.147 5.063l.237 5.8h4.174l-.89-14.476h-5.682l-1.6 5.15c-.414 1.393-.887 2.96-1.154 3.967h-.09c-.295-1.302-.71-2.78-.946-3.64l-1.568-5.48h-5.743l-1.01 14.475zm-9.577-11.6c2.05 0 2.88 2.188 2.88 4.35 0 2.604-1.124 4.35-2.87 4.35-1.924 0-2.96-1.863-2.96-4.35 0-2.132.8-4.35 2.96-4.35m.118-3.2c-4.647 0-7.725 2.99-7.725 7.667s3.256 7.46 7.488 7.46c3.878 0 7.637-2.428 7.637-7.727 0-4.35-2.96-7.4-7.4-7.4m-18.314 3.612h3.254v7.903h-4.794c.445-.74.8-1.628 1.007-2.457.327-1.24.534-2.54.534-3.75v-1.69zm-3.91-3.285v3.555c0 1.598-.24 3.226-.65 4.734-.33 1.06-.83 2.1-1.45 3.02l-1.335.09.117 7.75h3.404l.176-4.68h9.146l.145 4.676h3.374l.207-7.783-1.598-.06V6.85h-11.544z"/><path fill="#FF7D41" d="M88.42 6.85v3.434h4.203v11.04h4.53v-11.04h4.202V6.85H88.42zm-8.746 2.872c2.043 0 2.87 2.19 2.87 4.35 0 2.605-1.123 4.352-2.87 4.352-1.923 0-2.96-1.864-2.96-4.35 0-2.133.8-4.352 2.96-4.352m.12-3.198c-4.648 0-7.726 2.99-7.726 7.666 0 4.677 3.256 7.46 7.488 7.46 3.877 0 7.636-2.428 7.636-7.727 0-4.35-2.96-7.4-7.4-7.4m-21.857.328v3.44h4.203v11.04h4.528V10.29h4.203V6.85H57.93zm-12.12 8.62h6.245c-.385 1.778-1.953 2.755-4.055 2.755-1.45 0-2.693-.325-3.315-.592l-.68 3.05c1.213.62 2.81.977 4.44.977 5.12 0 8.287-3.02 8.287-7.607 0-2.603-.977-4.5-2.398-5.77-1.37-1.214-3.32-1.747-5.27-1.747-1.63 0-3.5.353-4.86 1.063l.83 2.87c.77-.326 1.833-.65 3.224-.65 2.34 0 3.58 1.125 3.877 2.812h-6.33v2.84z"/><path fill="#64C741" d="M33.023 12.444c.118-1.214.888-2.93 2.782-2.93 2.072 0 2.545 1.835 2.545 2.93h-5.327zm9.353 3.078c.06-.325.148-1.006.148-1.776 0-3.58-1.776-7.222-6.453-7.222-5.03 0-7.31 4.055-7.31 7.725 0 4.52 2.82 7.37 7.73 7.37 1.958 0 3.76-.3 5.24-.89l-.59-3.05c-1.212.38-2.455.59-3.994.59-2.102 0-3.937-.89-4.085-2.757h9.324zM18.17 10.135h3.256v7.903h-4.794c.444-.74.8-1.628 1.006-2.457.325-1.24.533-2.54.533-3.75v-1.69zM14.265 6.85v3.553c0 1.598-.237 3.226-.65 4.734-.327 1.066-.83 2.103-1.452 3.02l-1.332.09.12 7.753h3.41l.18-4.677h9.146l.14 4.677H27.2l.207-7.784-1.598-.06V6.85H14.26zm-13.014 0v14.474h4.5v-10.98h5.63V6.85H1.25z"/></svg>
